<svg width="42" height="45" viewBox="0 0 42 45" fill="none" xmlns="http://www.w3.org/2000/svg">
<path d="M18 9C18 13.9706 13.9706 18 9 18C4.02944 18 0 13.9706 0 9C0 4.02944 4.02944 0 9 0C13.9706 0 18 4.02944 18 9Z" fill="black"/>
<path d="M42 23C42 27.9706 37.9706 32 33 32C28.0294 32 24 27.9706 24 23C24 18.0294 28.0294 14 33 14C37.9706 14 42 18.0294 42 23Z" fill="black"/>
<path d="M18 36C18 40.9706 13.9706 45 9 45C4.02944 45 0 40.9706 0 36C0 31.0294 4.02944 27 9 27C13.9706 27 18 31.0294 18 36Z" fill="black"/>
</svg>
